<svg width="8" height="13" viewBox="0 0 8 13" fill="none" xmlns="http://www.w3.org/2000/svg">
<path fill-rule="evenodd" clip-rule="evenodd" d="M2.127 0.656953C2.44732 0.523132 2.79102 0.454224 3.13817 0.454224C3.48533 0.454224 3.82902 0.523132 4.14935 0.656953C4.46967 0.790774 4.76024 0.986847 5.00422 1.2338C5.2482 1.48076 5.44073 1.77369 5.57066 2.09561C5.70021 2.4166 5.76494 2.76005 5.76114 3.10616L5.75708 8.99942L5.75702 9.00319C5.74975 9.46313 5.56194 9.90178 5.23412 10.2245C4.90629 10.5472 4.46473 10.728 4.00474 10.728C3.54474 10.728 3.10318 10.5472 2.77536 10.2245C2.44753 9.90178 2.25972 9.46313 2.25245 9.00319L2.25239 8.99924V4.49998C2.25239 4.22384 2.47625 3.99998 2.75239 3.99998C3.02853 3.99998 3.25239 4.22384 3.25239 4.49998V8.99085C3.25639 9.18708 3.33691 9.37404 3.47686 9.51179C3.61762 9.65035 3.80722 9.72801 4.00474 9.72801C4.20225 9.72801 4.39185 9.65035 4.53262 9.51179C4.67259 9.37401 4.75312 9.18699 4.75708 8.99071L4.76114 3.0999L4.76118 3.09704C4.76378 2.88225 4.72373 2.66907 4.64333 2.46988C4.56294 2.27068 4.44381 2.08942 4.29284 1.93661C4.14187 1.7838 3.96207 1.66247 3.76386 1.57967C3.56565 1.49686 3.35298 1.45422 3.13817 1.45422C2.92336 1.45422 2.71069 1.49686 2.51249 1.57967C2.31428 1.66247 2.13448 1.7838 1.98351 1.93661C1.83254 2.08942 1.71341 2.27068 1.63301 2.46988C1.55262 2.66907 1.51256 2.88225 1.51517 3.09704L1.51521 3.10007V9.0386L1.51515 9.04222C1.51039 9.3715 1.57113 9.69845 1.69384 10.004C1.81656 10.3097 1.9988 10.5878 2.22997 10.8224C2.46115 11.0569 2.73664 11.2431 3.04043 11.3703C3.34423 11.4974 3.67026 11.5629 3.99958 11.5629C4.3289 11.5629 4.65493 11.4974 4.95873 11.3703C5.26252 11.2431 5.53801 11.0569 5.76919 10.8224C6.00036 10.5878 6.1826 10.3097 6.30532 10.004C6.42803 9.69845 6.48877 9.3715 6.48401 9.04222L6.48395 9.0386V3.49186C6.48395 3.21571 6.70781 2.99186 6.98395 2.99186C7.2601 2.99186 7.48395 3.21571 7.48395 3.49186V9.03151C7.49012 9.49205 7.40493 9.94925 7.23329 10.3767C7.06119 10.8053 6.8056 11.1954 6.48139 11.5243C6.15718 11.8533 5.77081 12.1145 5.34475 12.2928C4.91869 12.471 4.46144 12.5629 3.99958 12.5629C3.53772 12.5629 3.08047 12.471 2.65441 12.2928C2.22835 12.1145 1.84198 11.8533 1.51777 11.5243C1.19356 11.1954 0.93797 10.8053 0.765865 10.3767C0.594227 9.94925 0.509037 9.49204 0.515205 9.0315V3.10598C0.511428 2.75994 0.576161 2.41655 0.705689 2.09561C0.835614 1.77369 1.02815 1.48076 1.27213 1.2338C1.51611 0.986847 1.80668 0.790774 2.127 0.656953Z" fill="white"/>
</svg>
