<svg width="24" height="25" viewBox="0 0 24 25" fill="none" xmlns="http://www.w3.org/2000/svg">
<g clip-path="url(#clip0_1205_1489)">
<path fill-rule="evenodd" clip-rule="evenodd" d="M12.8192 24.8225H1.32462C0.592836 24.8225 0 24.2293 0 23.4978V2.14712C0 1.41544 0.592929 0.82251 1.32462 0.82251H22.6755C23.407 0.82251 24 1.41544 24 2.14712V23.4978C24 24.2294 23.4069 24.8225 22.6755 24.8225H16.5597V15.5284H19.6793L20.1464 11.9063H16.5597V9.59383C16.5597 8.54516 16.8509 7.83051 18.3546 7.83051L20.2727 7.82967V4.59006C19.9409 4.54592 18.8024 4.4473 17.4778 4.4473C14.7124 4.4473 12.8192 6.13527 12.8192 9.23512V11.9063H9.69156V15.5284H12.8192V24.8225Z" fill="#4F927A"/>
</g>
<defs>
<clipPath id="clip0_1205_1489">
<rect width="24" height="24" fill="white" transform="translate(0 0.82251)"/>
</clipPath>
</defs>
</svg>
