<svg width="24" height="25" viewBox="0 0 24 25" fill="none" xmlns="http://www.w3.org/2000/svg">
<g clip-path="url(#clip0_1205_1485)">
<path fill-rule="evenodd" clip-rule="evenodd" d="M12 0.82251C8.741 0.82251 8.33236 0.836322 7.05243 0.894722C5.77517 0.952978 4.90283 1.15585 4.13954 1.45251C3.35044 1.75914 2.68123 2.16946 2.01407 2.83657C1.34695 3.50373 0.936625 4.17295 0.630005 4.96205C0.33334 5.72534 0.130476 6.59766 0.0722198 7.87492C0.0138204 9.15485 0 9.5635 0 12.8225C0 16.0815 0.0138204 16.4902 0.0722198 17.7701C0.130476 19.0474 0.33334 19.9197 0.630005 20.683C0.936625 21.4721 1.34695 22.1413 2.01407 22.8084C2.68123 23.4756 3.35044 23.8859 4.13954 24.1926C4.90283 24.4892 5.77517 24.692 7.05243 24.7503C8.33236 24.8087 8.741 24.8225 12 24.8225C15.259 24.8225 15.6676 24.8087 16.9476 24.7503C18.2248 24.692 19.0972 24.4892 19.8604 24.1926C20.6495 23.8859 21.3188 23.4756 21.9859 22.8084C22.653 22.1413 23.0634 21.4721 23.37 20.683C23.6666 19.9197 23.8695 19.0474 23.9278 17.7701C23.9862 16.4902 24 16.0815 24 12.8225C24 9.5635 23.9862 9.15485 23.9278 7.87492C23.8695 6.59766 23.6666 5.72534 23.37 4.96205C23.0634 4.17295 22.653 3.50373 21.9859 2.83657C21.3188 2.16946 20.6495 1.75914 19.8604 1.45251C19.0972 1.15585 18.2248 0.952978 16.9476 0.894722C15.6676 0.836322 15.259 0.82251 12 0.82251ZM12 2.98466C15.2041 2.98466 15.5837 2.99691 16.849 3.05464C18.019 3.10799 18.6544 3.30348 19.0773 3.46782C19.6374 3.68551 20.0371 3.94554 20.457 4.36549C20.877 4.78538 21.137 5.18513 21.3547 5.74525C21.519 6.1681 21.7145 6.80349 21.7679 7.97348C21.8256 9.23883 21.8378 9.61838 21.8378 12.8225C21.8378 16.0266 21.8256 16.4062 21.7679 17.6715C21.7145 18.8415 21.519 19.4769 21.3547 19.8998C21.137 20.4599 20.877 20.8596 20.457 21.2795C20.0371 21.6995 19.6374 21.9595 19.0773 22.1772C18.6544 22.3415 18.019 22.537 16.849 22.5904C15.5839 22.6481 15.2044 22.6604 12 22.6604C8.79564 22.6604 8.41618 22.6481 7.15097 22.5904C5.98098 22.537 5.34559 22.3415 4.92274 22.1772C4.36262 21.9595 3.96286 21.6995 3.54297 21.2795C3.12307 20.8596 2.863 20.4599 2.64531 19.8998C2.48097 19.4769 2.28548 18.8415 2.23213 17.6715C2.1744 16.4062 2.16216 16.0266 2.16216 12.8225C2.16216 9.61838 2.1744 9.23883 2.23213 7.97348C2.28548 6.80349 2.48097 6.1681 2.64531 5.74525C2.863 5.18513 3.12303 4.78538 3.54297 4.36549C3.96286 3.94554 4.36262 3.68551 4.92274 3.46782C5.34559 3.30348 5.98098 3.10799 7.15097 3.05464C8.41632 2.99691 8.79588 2.98466 12 2.98466ZM12 6.66035C8.59672 6.66035 5.83784 9.41922 5.83784 12.8225C5.83784 16.2258 8.59672 18.9847 12 18.9847C15.4033 18.9847 18.1622 16.2258 18.1622 12.8225C18.1622 9.41922 15.4033 6.66035 12 6.66035ZM12 16.8225C9.79086 16.8225 8 15.0317 8 12.8225C8 10.6134 9.79086 8.82251 12 8.82251C14.2092 8.82251 16 10.6134 16 12.8225C16 15.0317 14.2092 16.8225 12 16.8225ZM19.8456 6.41689C19.8456 7.21219 19.2009 7.85687 18.4056 7.85687C17.6104 7.85687 16.9656 7.21219 16.9656 6.41689C16.9656 5.62159 17.6104 4.97687 18.4056 4.97687C19.2009 4.97687 19.8456 5.62159 19.8456 6.41689Z" fill="#4F927A"/>
</g>
<defs>
<clipPath id="clip0_1205_1485">
<rect width="24" height="24" fill="white" transform="translate(0 0.82251)"/>
</clipPath>
</defs>
</svg>
