<svg width="27" height="25" viewBox="0 0 27 25" fill="none" xmlns="http://www.w3.org/2000/svg">
<g clip-path="url(#clip0_1205_1493)">
<path fill-rule="evenodd" clip-rule="evenodd" d="M26.4 24.8225H20.5652V16.3855C20.5652 14.1772 19.6526 12.6696 17.6455 12.6696C16.1104 12.6696 15.2567 13.687 14.8593 14.6674C14.7103 15.0194 14.7336 15.5096 14.7336 15.9998V24.8225H8.95316C8.95316 24.8225 9.02767 9.87726 8.95316 8.51874H14.7336V11.0775C15.0751 9.95872 16.9222 8.36199 19.8698 8.36199C23.5268 8.36199 26.4 10.7071 26.4 15.757V24.8225ZM3.10752 6.47943H3.07028C1.20762 6.47943 0 5.23308 0 3.65327C0 2.04271 1.24332 0.82251 3.14322 0.82251C5.04158 0.82251 6.20884 2.03965 6.24609 3.64867C6.24609 5.22849 5.04157 6.47943 3.10752 6.47943ZM0.665881 8.51874H5.81147V24.8225H0.665881V8.51874Z" fill="#4F927A"/>
</g>
<defs>
<clipPath id="clip0_1205_1493">
<rect width="26.4" height="24" fill="white" transform="translate(0 0.82251)"/>
</clipPath>
</defs>
</svg>
