<svg width="102" height="102" viewBox="0 0 102 102" fill="none" xmlns="http://www.w3.org/2000/svg">
<rect width="102" height="102" fill="#26634D"/>
<path d="M8.58215 67.83V46.7925H14.989L16.7581 59.6182L18.5152 46.7925H24.9818V67.83H21.1329V52.6734L18.7184 67.83H14.9412L12.3832 52.6734V67.83H8.58215Z" fill="white"/>
<path d="M26.2728 67.83L28.3048 46.7925H35.4408L37.437 67.83H33.4566L33.1578 64.4353H30.6237L30.3607 67.83H26.2728ZM30.9225 61.0765H32.835L31.9147 50.3784H31.7234L30.9225 61.0765Z" fill="white"/>
<path d="M8.58215 92.31V71.2725H12.7897V88.724H17.1167V92.31H8.58215Z" fill="white"/>
<path d="M18.312 92.31V71.2725H26.727V75.3365H22.5912V79.4365H26.5597V83.3929H22.5912V88.2101H27.0019V92.31H18.312Z" fill="white"/>
<path d="M30.3368 92.31L27.743 71.2605H31.7473L33.2893 85.5804L34.6639 71.2605H38.6682L36.0743 92.31H30.3368Z" fill="white"/>
<path d="M39.7081 92.31V71.2725H43.7722V92.31H39.7081Z" fill="white"/>
<path d="M50.3464 92.5012C48.8243 92.5012 47.5972 92.0271 46.6648 91.0788C45.7404 90.1305 45.2782 88.8037 45.2782 87.0984V77.3925C45.2782 75.3525 45.6807 73.7906 46.4855 72.7069C47.2983 71.6231 48.6172 71.0812 50.442 71.0812C51.4381 71.0812 52.3226 71.2645 53.0956 71.6311C53.8765 71.9976 54.4901 72.5475 54.9364 73.2806C55.3826 74.0058 55.6057 74.9222 55.6057 76.0298V79.6636H51.4222V76.5558C51.4222 75.9262 51.3425 75.5039 51.1831 75.2887C51.0237 75.0656 50.7767 74.954 50.442 74.954C50.0515 74.954 49.7886 75.0975 49.6531 75.3844C49.5176 75.6633 49.4499 76.0378 49.4499 76.5079V87.0387C49.4499 87.6204 49.5336 88.0308 49.7009 88.2698C49.8762 88.5089 50.1232 88.6284 50.442 88.6284C50.8006 88.6284 51.0516 88.481 51.195 88.1862C51.3465 87.8913 51.4222 87.5088 51.4222 87.0387V83.2495H55.6536V87.2299C55.6536 89.0787 55.1874 90.4214 54.255 91.2581C53.3227 92.0869 52.0198 92.5012 50.3464 92.5012Z" fill="white"/>
<path d="M57.064 92.31V71.2725H61.2476V78.791H63.2318V71.2725H67.4154V92.31H63.2318V82.7714H61.2476V92.31H57.064Z" fill="white"/>
<path d="M73.6432 92.4454C73.2714 92.4454 72.9261 92.3804 72.6073 92.2502C72.2912 92.1174 72.0136 91.9328 71.7746 91.6964C71.5382 91.4573 71.3536 91.1797 71.2207 90.8636C71.0906 90.5449 71.0255 90.1996 71.0255 89.8277C71.0255 89.4558 71.0906 89.1118 71.2207 88.7957C71.3536 88.477 71.5382 88.1994 71.7746 87.963C72.0136 87.7239 72.2912 87.5393 72.6073 87.4092C72.9261 87.2764 73.2714 87.21 73.6432 87.21C74.0151 87.21 74.3591 87.2764 74.6752 87.4092C74.994 87.5393 75.2715 87.7239 75.5079 87.963C75.747 88.1994 75.9316 88.477 76.0618 88.7957C76.1946 89.1118 76.261 89.4558 76.261 89.8277C76.261 90.1996 76.1946 90.5449 76.0618 90.8636C75.9316 91.1797 75.747 91.4573 75.5079 91.6964C75.2715 91.9328 74.994 92.1174 74.6752 92.2502C74.3591 92.3804 74.0151 92.4454 73.6432 92.4454ZM73.6432 91.9314C74.0284 91.9314 74.3697 91.8371 74.6672 91.6486C74.9647 91.4573 75.1985 91.2023 75.3685 90.8836C75.5411 90.5648 75.6275 90.2129 75.6275 89.8277C75.6275 89.4399 75.5411 89.0879 75.3685 88.7718C75.1985 88.4531 74.9647 88.1994 74.6672 88.0108C74.3697 87.8196 74.0284 87.7239 73.6432 87.7239C73.2607 87.7239 72.9194 87.8196 72.6193 88.0108C72.3218 88.1994 72.0867 88.4531 71.914 88.7718C71.744 89.0879 71.659 89.4399 71.659 89.8277C71.659 90.2129 71.744 90.5648 71.914 90.8836C72.0867 91.2023 72.3218 91.4573 72.6193 91.6486C72.9194 91.8371 73.2607 91.9314 73.6432 91.9314ZM73.6193 91.5729C73.3431 91.5729 73.1213 91.4945 72.954 91.3378C72.7866 91.1811 72.7029 90.9619 72.7029 90.6804V89.0826C72.7029 88.7479 72.776 88.4943 72.9221 88.3216C73.0682 88.1489 73.3059 88.0626 73.6353 88.0626C73.9036 88.0626 74.1267 88.129 74.3047 88.2618C74.4826 88.392 74.5716 88.5912 74.5716 88.8595V89.4691H73.8186V89.0667C73.8186 88.8621 73.7575 88.7599 73.6353 88.7599C73.5609 88.7599 73.5131 88.7838 73.4918 88.8316C73.4706 88.8768 73.46 88.9379 73.46 89.0149V90.6445C73.46 90.7029 73.4746 90.7614 73.5038 90.8198C73.5357 90.8756 73.5795 90.9035 73.6353 90.9035C73.7575 90.9035 73.8186 90.8171 73.8186 90.6445V90.0508H74.5875V90.7003C74.5875 91.282 74.2648 91.5729 73.6193 91.5729Z" fill="white"/>
</svg>
