<svg width="24" height="20" viewBox="0 0 24 20" fill="none" xmlns="http://www.w3.org/2000/svg">
<path d="M21.6 0.700928C22.2365 0.700928 22.847 0.949058 23.2971 1.39073C23.7471 1.83241 24 2.43145 24 3.05607V17.1869C24 17.8115 23.7471 18.4106 23.2971 18.8522C22.847 19.2939 22.2365 19.542 21.6 19.542H2.4C1.76348 19.542 1.15303 19.2939 0.702944 18.8522C0.252856 18.4106 0 17.8115 0 17.1869V3.05607C0 1.76074 1.08 0.700928 2.4 0.700928H21.6ZM16.356 11.4168L24 17.1869V14.8318L17.856 10.2392L24 5.41121V3.05607L12 12.4766L0 3.05607V5.41121L6.144 10.2392L0 14.8318V17.1869L7.644 11.4168L12 14.8318L16.356 11.4168Z" fill="#4F927A"/>
</svg>
