<svg width="18" height="24" viewBox="0 0 18 24" fill="none" xmlns="http://www.w3.org/2000/svg">
<path d="M9.00156 23.8038C9.00156 23.8038 0.601563 13.0526 0.601563 8.49543C0.601562 7.41295 0.818835 6.34106 1.24097 5.34098C1.66311 4.34089 2.28185 3.43219 3.06187 2.66676C3.84188 1.90132 4.76789 1.29415 5.78702 0.879902C6.80616 0.465653 7.89846 0.252441 9.00156 0.252441C10.1047 0.252441 11.197 0.465653 12.2161 0.879902C13.2352 1.29415 14.1612 1.90132 14.9413 2.66676C15.7213 3.43219 16.34 4.34089 16.7622 5.34098C17.1843 6.34106 17.4016 7.41295 17.4016 8.49543C17.4016 13.0526 9.00156 23.8038 9.00156 23.8038ZM9.00156 10.8506C9.63808 10.8506 10.2485 10.6024 10.6986 10.1608C11.1487 9.71909 11.4016 9.12005 11.4016 8.49543C11.4016 7.87081 11.1487 7.27177 10.6986 6.8301C10.2485 6.38842 9.63808 6.14029 9.00156 6.14029C8.36504 6.14029 7.75459 6.38842 7.30451 6.8301C6.85442 7.27177 6.60156 7.87081 6.60156 8.49543C6.60156 9.12005 6.85442 9.71909 7.30451 10.1608C7.75459 10.6024 8.36504 10.8506 9.00156 10.8506Z" fill="#4F927A"/>
</svg>
