<svg width="24" height="24" viewBox="0 0 24 24" fill="none" xmlns="http://www.w3.org/2000/svg">
<path d="M24 21.9075V22.6729C24 22.9852 23.8736 23.2847 23.6485 23.5056C23.4235 23.7264 23.1183 23.8505 22.8 23.8505H20.4C14.9896 23.8505 9.80076 21.7414 5.97502 17.9871C2.14928 14.2329 0 9.14107 0 3.83178L0 1.47664C0 1.16433 0.126428 0.864812 0.351472 0.643975C0.576516 0.423137 0.88174 0.299072 1.2 0.299072L6 0.299072C6.31826 0.299072 6.62348 0.423137 6.84853 0.643975C7.07357 0.864812 7.2 1.16433 7.2 1.47664V6.18692C7.2 6.84636 6.828 7.72954 6.36 8.18879L3.792 10.7088C5.616 14.948 9.072 18.3394 13.392 20.1294L15.936 17.6329C16.416 17.1619 17.316 16.7968 17.976 16.7968H22.8C23.1162 16.7999 23.4183 16.9254 23.6408 17.1459C23.8632 17.3664 23.988 17.6641 23.988 17.9744V21.9193L24 21.9075Z" fill="#4F927A"/>
</svg>
